<svg width="133" height="133" viewBox="0 0 133 133" fill="none" xmlns="http://www.w3.org/2000/svg">
<path fill-rule="evenodd" clip-rule="evenodd" d="M53.7874 1.83325C89.5686 -5.25436 124.321 18.0063 131.408 53.7875C138.496 89.5686 115.235 124.321 79.4539 131.408C43.6728 138.496 8.92087 115.235 1.83325 79.454C-5.25436 43.6728 18.0063 8.92086 53.7874 1.83325ZM52.406 7.14513C45.2211 9.6493 39.3596 16.9824 35.864 27.9975C34.85 31.1926 34.0507 34.659 33.4853 38.3427C40.544 35.0045 48.4863 32.2875 57.0165 30.4209L52.406 7.14513ZM28.318 40.9834C28.9041 35.8135 29.9135 30.9638 31.3133 26.5534C33.046 21.0929 35.4179 16.2041 38.3922 12.2209C19.8332 21.8405 7.38612 40.4367 5.56778 61.2614C8.11631 56.9932 11.7318 52.9368 16.1194 49.2533C19.6632 46.278 23.7619 43.4961 28.318 40.9834ZM27.8464 46.7672C27.4512 54.5654 27.9671 62.9437 29.4932 71.5414L6.21739 76.1519C5.7935 68.5546 10.3385 60.3403 19.1893 52.9099C21.7566 50.7545 24.6565 48.6941 27.8464 46.7672ZM34.1777 70.6135C32.5199 61.2292 32.1272 52.1886 32.8176 43.9952C40.1292 40.2335 48.6371 37.1497 57.9444 35.1052L59.9482 45.2214C58.2297 54.8378 52.5271 63.3568 44.2914 68.6101L34.1777 70.6135ZM30.4209 76.2249L7.1451 80.8354C9.64938 88.0206 16.9824 93.8818 27.9975 97.3774C31.1926 98.3914 34.659 99.1907 38.3426 99.7562C35.0045 92.6974 32.2875 84.7551 30.4209 76.2249ZM43.9952 100.424C40.2334 93.1122 37.1501 84.6046 35.1055 75.2969L45.2191 73.2936C54.8356 75.0108 63.3554 80.7125 68.6097 88.9477L70.6135 99.064C61.2296 100.722 52.1886 101.114 43.9952 100.424ZM40.9834 104.923C35.8134 104.337 30.9638 103.328 26.5534 101.928C21.0929 100.195 16.2041 97.8235 12.2209 94.8492C21.8405 113.408 40.4368 125.855 61.2614 127.674C56.9932 125.125 52.9368 121.51 49.2533 117.122C46.278 113.578 43.496 109.479 40.9834 104.923ZM76.1519 127.024C68.5549 127.448 60.3406 122.903 52.9099 114.052C50.7545 111.485 48.6941 108.585 46.7671 105.395C54.5654 105.79 62.9437 105.274 71.5414 103.748L76.1519 127.024ZM94.8491 121.02C97.8235 117.037 100.195 112.149 101.928 106.688C103.328 102.278 104.337 97.4279 104.923 92.258C109.479 89.7454 113.578 86.9634 117.122 83.988C121.51 80.3046 125.125 76.2482 127.674 71.98C125.855 92.8046 113.408 111.401 94.8491 121.02ZM99.7562 94.8988C99.1907 98.5823 98.3914 102.049 97.3774 105.244C93.8821 116.259 88.0206 123.592 80.8354 126.096L76.2248 102.82C84.7551 100.954 92.6973 98.2368 99.7562 94.8988ZM105.395 86.4743C108.585 84.5473 111.485 82.4869 114.052 80.3315C122.903 72.9008 127.448 64.6868 127.024 57.0895L103.748 61.7C105.274 70.2977 105.79 78.676 105.395 86.4743ZM99.064 62.6279C100.722 72.0121 101.114 81.0528 100.424 89.2462C93.1122 93.008 84.6046 96.0916 75.297 98.1363L73.2946 88.0275C75.0112 78.4081 80.7148 69.8855 88.9529 64.6307L99.064 62.6279ZM102.82 57.0166L126.096 52.406C123.592 45.2208 116.259 39.3594 105.244 35.864C102.049 34.85 98.5823 34.0507 94.8988 33.4853C98.2368 40.5441 100.954 48.4863 102.82 57.0166ZM89.2462 32.8177C93.008 40.1292 96.0916 48.6368 98.1362 57.9444L88.0252 59.9472C78.406 58.2296 69.8842 52.5249 64.6302 44.2862L62.6279 34.1774C72.0121 32.5196 81.0528 32.1272 89.2462 32.8177ZM92.258 28.318C97.4279 28.9041 102.278 29.9135 106.688 31.3133C112.148 33.046 117.037 35.4178 121.02 38.3923C111.401 19.8332 92.8047 7.38615 71.98 5.56777C76.2482 8.11633 80.3046 11.7318 83.9884 16.1193C86.9634 19.6632 89.7454 23.7619 92.258 28.318ZM57.0895 6.21741C64.6868 5.79349 72.9011 10.3384 80.3315 19.1893C82.4869 21.7566 84.5473 24.6565 86.4743 27.8465C78.676 27.4512 70.2977 27.9671 61.7 29.4932L57.0895 6.21741Z" fill="white"/>
</svg>
